<svg xmlns="http://www.w3.org/2000/svg" xmlns:xlink="http://www.w3.org/1999/xlink" width="816" zoomAndPan="magnify" viewBox="0 0 612 791.999994" height="1056" preserveAspectRatio="xMidYMid meet" version="1.0"><defs><g/><clipPath id="c2d24dbda0"><path d="M 163 239.542969 L 459 239.542969 L 459 525 L 163 525 Z M 163 239.542969 " clip-rule="nonzero"/></clipPath><clipPath id="63b27ee523"><path d="M 163.363281 239.542969 L 443.675781 402.285156 C 443.675781 402.285156 469.480469 415.039062 452.871094 447.957031 L 427.167969 498.667969 C 427.167969 498.667969 414.511719 524.667969 388.222656 524.667969 L 189.089844 524.316406 L 246.914062 443.285156 L 239.355469 484.355469 L 395.441406 484.925781 C 395.441406 484.925781 405.820312 485.125 411.746094 473.757812 L 424.601562 448.554688 C 424.601562 448.554688 430.429688 438.375 420.050781 429.671875 L 230.460938 355.429688 C 230.460938 355.429688 208.8125 346.039062 197.644531 320.238281 Z M 163.363281 239.542969 " clip-rule="nonzero"/></clipPath><clipPath id="7da760af32"><path d="M 153.554688 468 L 198.847656 468 L 198.847656 517.695312 L 153.554688 517.695312 Z M 153.554688 468 " clip-rule="nonzero"/></clipPath><clipPath id="1184844d71"><path d="M 153.554688 468.222656 L 184.125 517.570312 L 198.335938 497.882812 Z M 153.554688 468.222656 " clip-rule="nonzero"/></clipPath><clipPath id="0b8ff55881"><path d="M 157.617188 405.042969 L 218.59375 405.042969 L 218.59375 492.726562 L 157.617188 492.726562 Z M 157.617188 405.042969 " clip-rule="nonzero"/></clipPath><clipPath id="c8ed7b1879"><path d="M 157.804688 462.878906 L 201.988281 492.636719 L 218.296875 469.902344 L 181.429688 454.976562 L 218.300781 405.550781 Z M 157.804688 462.878906 " clip-rule="nonzero"/></clipPath><clipPath id="156d06f383"><path d="M 196 411 L 229.625 411 L 229.625 452.660156 L 196 452.660156 Z M 196 411 " clip-rule="nonzero"/></clipPath><clipPath id="d52c518a59"><path d="M 222.847656 411.09375 L 196.058594 448.566406 L 205.449219 452.324219 L 229.074219 419.109375 Z M 222.847656 411.09375 " clip-rule="nonzero"/></clipPath><clipPath id="ce2d7fed00"><path d="M 213 426 L 242 426 L 242 460.207031 L 213 460.207031 Z M 213 426 " clip-rule="nonzero"/></clipPath><clipPath id="25c265c9f2"><path d="M 234.214844 426.125 L 213.15625 455.382812 L 225.121094 460.027344 L 241.972656 436.304688 Z M 234.214844 426.125 " clip-rule="nonzero"/></clipPath></defs><rect x="-61.2" width="734.4" fill="#ffffff" y="-79.199999" height="950.399992" fill-opacity="1"/><rect x="-61.2" width="734.4" fill="#636466" y="-79.199999" height="950.399992" fill-opacity="1"/><g clip-path="url(#c2d24dbda0)"><g clip-path="url(#63b27ee523)"><path fill="#ff8b00" d="M 150.652344 236.640625 L 461.324219 236.640625 L 461.324219 527.566406 L 150.652344 527.566406 Z M 150.652344 236.640625 " fill-opacity="1" fill-rule="nonzero"/></g></g><g clip-path="url(#7da760af32)"><g clip-path="url(#1184844d71)"><path fill="#ff8b00" d="M 150.652344 236.640625 L 461.324219 236.640625 L 461.324219 527.566406 L 150.652344 527.566406 Z M 150.652344 236.640625 " fill-opacity="1" fill-rule="nonzero"/></g></g><g clip-path="url(#0b8ff55881)"><g clip-path="url(#c8ed7b1879)"><path fill="#ffffff" d="M 150.652344 236.640625 L 461.324219 236.640625 L 461.324219 527.566406 L 150.652344 527.566406 Z M 150.652344 236.640625 " fill-opacity="1" fill-rule="nonzero"/></g></g><g clip-path="url(#156d06f383)"><g clip-path="url(#d52c518a59)"><path fill="#ff8b00" d="M 150.652344 236.640625 L 461.324219 236.640625 L 461.324219 527.566406 L 150.652344 527.566406 Z M 150.652344 236.640625 " fill-opacity="1" fill-rule="nonzero"/></g></g><g clip-path="url(#ce2d7fed00)"><g clip-path="url(#25c265c9f2)"><path fill="#ffffff" d="M 150.652344 236.640625 L 461.324219 236.640625 L 461.324219 527.566406 L 150.652344 527.566406 Z M 150.652344 236.640625 " fill-opacity="1" fill-rule="nonzero"/></g></g><path stroke-linecap="butt" transform="matrix(0.74999, -0.00377791, 0.00377791, 0.74999, 187.792068, 581.259303)" fill="none" stroke-linejoin="miter" d="M -0.00113697 1.498026 L 278.122193 1.49795 " stroke="#ff8b00" stroke-width="3" stroke-opacity="1" stroke-miterlimit="4"/><g fill="#ffffff" fill-opacity="1"><g transform="translate(187.789973, 573.557673)"><g><path d="M 1.90625 -16.125 L 9.234375 -16.125 C 10.984375 -16.125 12.53125 -15.789062 13.875 -15.125 C 15.21875 -14.457031 16.257812 -13.515625 17 -12.296875 C 17.75 -11.085938 18.125 -9.675781 18.125 -8.0625 C 18.125 -6.445312 17.75 -5.03125 17 -3.8125 C 16.257812 -2.601562 15.21875 -1.664062 13.875 -1 C 12.53125 -0.332031 10.984375 0 9.234375 0 L 1.90625 0 Z M 9.046875 -3.0625 C 10.660156 -3.0625 11.945312 -3.507812 12.90625 -4.40625 C 13.863281 -5.300781 14.34375 -6.519531 14.34375 -8.0625 C 14.34375 -9.59375 13.863281 -10.804688 12.90625 -11.703125 C 11.945312 -12.609375 10.660156 -13.0625 9.046875 -13.0625 L 5.640625 -13.0625 L 5.640625 -3.0625 Z M 9.046875 -3.0625 "/></g></g></g><g fill="#ffffff" fill-opacity="1"><g transform="translate(207.491357, 573.557673)"><g><path d="M 14.390625 -3 L 14.390625 0 L 1.90625 0 L 1.90625 -16.125 L 14.09375 -16.125 L 14.09375 -13.125 L 5.625 -13.125 L 5.625 -9.625 L 13.109375 -9.625 L 13.109375 -6.71875 L 5.625 -6.71875 L 5.625 -3 Z M 14.390625 -3 "/></g></g></g><g fill="#ffffff" fill-opacity="1"><g transform="translate(223.625408, 573.557673)"><g><path d="M 17.40625 -16.125 L 10.4375 0 L 6.75 0 L -0.203125 -16.125 L 3.828125 -16.125 L 8.734375 -4.609375 L 13.703125 -16.125 Z M 17.40625 -16.125 "/></g></g></g><g fill="#ffffff" fill-opacity="1"><g transform="translate(241.48559, 573.557673)"><g/></g></g><g fill="#ffffff" fill-opacity="1"><g transform="translate(248.689779, 573.557673)"><g><path d="M 9.625 0.28125 C 7.976562 0.28125 6.488281 -0.0703125 5.15625 -0.78125 C 3.832031 -1.5 2.789062 -2.492188 2.03125 -3.765625 C 1.269531 -5.035156 0.890625 -6.46875 0.890625 -8.0625 C 0.890625 -9.65625 1.269531 -11.082031 2.03125 -12.34375 C 2.789062 -13.613281 3.832031 -14.601562 5.15625 -15.3125 C 6.488281 -16.03125 7.988281 -16.390625 9.65625 -16.390625 C 11.050781 -16.390625 12.3125 -16.144531 13.4375 -15.65625 C 14.5625 -15.164062 15.507812 -14.460938 16.28125 -13.546875 L 13.890625 -11.328125 C 12.796875 -12.585938 11.441406 -13.21875 9.828125 -13.21875 C 8.835938 -13.21875 7.945312 -13 7.15625 -12.5625 C 6.375 -12.125 5.765625 -11.515625 5.328125 -10.734375 C 4.890625 -9.953125 4.671875 -9.0625 4.671875 -8.0625 C 4.671875 -7.0625 4.890625 -6.171875 5.328125 -5.390625 C 5.765625 -4.609375 6.375 -4 7.15625 -3.5625 C 7.945312 -3.125 8.835938 -2.90625 9.828125 -2.90625 C 11.441406 -2.90625 12.796875 -3.539062 13.890625 -4.8125 L 16.28125 -2.609375 C 15.507812 -1.671875 14.554688 -0.953125 13.421875 -0.453125 C 12.285156 0.0351562 11.019531 0.28125 9.625 0.28125 Z M 9.625 0.28125 "/></g></g></g><g fill="#ffffff" fill-opacity="1"><g transform="translate(266.250774, 573.557673)"><g><path d="M 12.1875 0 L 9.078125 -4.484375 L 5.640625 -4.484375 L 5.640625 0 L 1.90625 0 L 1.90625 -16.125 L 8.890625 -16.125 C 10.316406 -16.125 11.554688 -15.882812 12.609375 -15.40625 C 13.660156 -14.925781 14.46875 -14.25 15.03125 -13.375 C 15.601562 -12.5 15.890625 -11.460938 15.890625 -10.265625 C 15.890625 -9.066406 15.601562 -8.035156 15.03125 -7.171875 C 14.457031 -6.304688 13.640625 -5.644531 12.578125 -5.1875 L 16.1875 0 Z M 12.109375 -10.265625 C 12.109375 -11.171875 11.816406 -11.863281 11.234375 -12.34375 C 10.648438 -12.832031 9.800781 -13.078125 8.6875 -13.078125 L 5.640625 -13.078125 L 5.640625 -7.46875 L 8.6875 -7.46875 C 9.800781 -7.46875 10.648438 -7.710938 11.234375 -8.203125 C 11.816406 -8.691406 12.109375 -9.378906 12.109375 -10.265625 Z M 12.109375 -10.265625 "/></g></g></g><g fill="#ffffff" fill-opacity="1"><g transform="translate(283.857794, 573.557673)"><g><path d="M 14.390625 -3 L 14.390625 0 L 1.90625 0 L 1.90625 -16.125 L 14.09375 -16.125 L 14.09375 -13.125 L 5.625 -13.125 L 5.625 -9.625 L 13.109375 -9.625 L 13.109375 -6.71875 L 5.625 -6.71875 L 5.625 -3 Z M 14.390625 -3 "/></g></g></g><g fill="#ffffff" fill-opacity="1"><g transform="translate(299.991841, 573.557673)"><g><path d="M 12.53125 -3.453125 L 5.046875 -3.453125 L 3.609375 0 L -0.203125 0 L 6.984375 -16.125 L 10.65625 -16.125 L 17.875 0 L 13.953125 0 Z M 11.359375 -6.28125 L 8.796875 -12.453125 L 6.234375 -6.28125 Z M 11.359375 -6.28125 "/></g></g></g><g fill="#ffffff" fill-opacity="1"><g transform="translate(318.312323, 573.557673)"><g><path d="M 5.25 -13.078125 L 0.09375 -13.078125 L 0.09375 -16.125 L 14.140625 -16.125 L 14.140625 -13.078125 L 8.984375 -13.078125 L 8.984375 0 L 5.25 0 Z M 5.25 -13.078125 "/></g></g></g><g fill="#ffffff" fill-opacity="1"><g transform="translate(333.226577, 573.557673)"><g><path d="M 1.90625 -16.125 L 5.640625 -16.125 L 5.640625 0 L 1.90625 0 Z M 1.90625 -16.125 "/></g></g></g><g fill="#ffffff" fill-opacity="1"><g transform="translate(341.466452, 573.557673)"><g><path d="M 9.71875 0.28125 C 8.039062 0.28125 6.53125 -0.078125 5.1875 -0.796875 C 3.84375 -1.523438 2.789062 -2.519531 2.03125 -3.78125 C 1.269531 -5.050781 0.890625 -6.476562 0.890625 -8.0625 C 0.890625 -9.644531 1.269531 -11.066406 2.03125 -12.328125 C 2.789062 -13.597656 3.84375 -14.59375 5.1875 -15.3125 C 6.53125 -16.03125 8.039062 -16.390625 9.71875 -16.390625 C 11.394531 -16.390625 12.898438 -16.03125 14.234375 -15.3125 C 15.566406 -14.59375 16.617188 -13.597656 17.390625 -12.328125 C 18.160156 -11.066406 18.546875 -9.644531 18.546875 -8.0625 C 18.546875 -6.476562 18.160156 -5.050781 17.390625 -3.78125 C 16.617188 -2.519531 15.566406 -1.523438 14.234375 -0.796875 C 12.898438 -0.078125 11.394531 0.28125 9.71875 0.28125 Z M 9.71875 -2.90625 C 10.664062 -2.90625 11.523438 -3.125 12.296875 -3.5625 C 13.066406 -4 13.671875 -4.609375 14.109375 -5.390625 C 14.546875 -6.171875 14.765625 -7.0625 14.765625 -8.0625 C 14.765625 -9.0625 14.546875 -9.953125 14.109375 -10.734375 C 13.671875 -11.515625 13.066406 -12.125 12.296875 -12.5625 C 11.523438 -13 10.664062 -13.21875 9.71875 -13.21875 C 8.769531 -13.21875 7.910156 -13 7.140625 -12.5625 C 6.367188 -12.125 5.765625 -11.515625 5.328125 -10.734375 C 4.890625 -9.953125 4.671875 -9.0625 4.671875 -8.0625 C 4.671875 -7.0625 4.890625 -6.171875 5.328125 -5.390625 C 5.765625 -4.609375 6.367188 -4 7.140625 -3.5625 C 7.910156 -3.125 8.769531 -2.90625 9.71875 -2.90625 Z M 9.71875 -2.90625 "/></g></g></g><g fill="#ffffff" fill-opacity="1"><g transform="translate(361.58212, 573.557673)"><g><path d="M 16.703125 -16.125 L 16.703125 0 L 13.640625 0 L 5.59375 -9.78125 L 5.59375 0 L 1.90625 0 L 1.90625 -16.125 L 5 -16.125 L 13.015625 -6.328125 L 13.015625 -16.125 Z M 16.703125 -16.125 "/></g></g></g><g fill="#ffffff" fill-opacity="1"><g transform="translate(380.869246, 573.557673)"><g><path d="M 7.203125 0.28125 C 5.929688 0.28125 4.703125 0.109375 3.515625 -0.234375 C 2.328125 -0.585938 1.367188 -1.039062 0.640625 -1.59375 L 1.90625 -4.40625 C 2.601562 -3.894531 3.425781 -3.484375 4.375 -3.171875 C 5.320312 -2.867188 6.273438 -2.71875 7.234375 -2.71875 C 8.296875 -2.71875 9.078125 -2.875 9.578125 -3.1875 C 10.085938 -3.5 10.34375 -3.914062 10.34375 -4.4375 C 10.34375 -4.820312 10.191406 -5.140625 9.890625 -5.390625 C 9.585938 -5.648438 9.203125 -5.851562 8.734375 -6 C 8.265625 -6.15625 7.632812 -6.328125 6.84375 -6.515625 C 5.613281 -6.804688 4.609375 -7.097656 3.828125 -7.390625 C 3.046875 -7.679688 2.375 -8.148438 1.8125 -8.796875 C 1.25 -9.441406 0.96875 -10.300781 0.96875 -11.375 C 0.96875 -12.3125 1.21875 -13.160156 1.71875 -13.921875 C 2.226562 -14.679688 2.992188 -15.28125 4.015625 -15.71875 C 5.035156 -16.164062 6.285156 -16.390625 7.765625 -16.390625 C 8.785156 -16.390625 9.785156 -16.265625 10.765625 -16.015625 C 11.753906 -15.773438 12.617188 -15.425781 13.359375 -14.96875 L 12.203125 -12.140625 C 10.710938 -12.984375 9.222656 -13.40625 7.734375 -13.40625 C 6.691406 -13.40625 5.921875 -13.234375 5.421875 -12.890625 C 4.921875 -12.554688 4.671875 -12.113281 4.671875 -11.5625 C 4.671875 -11.007812 4.957031 -10.597656 5.53125 -10.328125 C 6.113281 -10.054688 6.992188 -9.789062 8.171875 -9.53125 C 9.398438 -9.238281 10.40625 -8.945312 11.1875 -8.65625 C 11.976562 -8.363281 12.648438 -7.898438 13.203125 -7.265625 C 13.765625 -6.640625 14.046875 -5.789062 14.046875 -4.71875 C 14.046875 -3.800781 13.785156 -2.960938 13.265625 -2.203125 C 12.753906 -1.441406 11.984375 -0.835938 10.953125 -0.390625 C 9.929688 0.0546875 8.679688 0.28125 7.203125 0.28125 Z M 7.203125 0.28125 "/></g></g></g><g fill="#ff8b00" fill-opacity="1"><g transform="translate(187.789973, 595.939316)"><g><path d="M 6.140625 -1.6875 L 2.46875 -1.6875 L 1.765625 0 L -0.09375 0 L 3.421875 -7.890625 L 5.21875 -7.890625 L 8.75 0 L 6.84375 0 Z M 5.5625 -3.078125 L 4.3125 -6.109375 L 3.0625 -3.078125 Z M 5.5625 -3.078125 "/></g></g></g><g fill="#ff8b00" fill-opacity="1"><g transform="translate(205.458771, 595.939316)"><g><path d="M 8.171875 -7.890625 L 8.171875 0 L 6.671875 0 L 2.734375 -4.796875 L 2.734375 0 L 0.9375 0 L 0.9375 -7.890625 L 2.453125 -7.890625 L 6.375 -3.109375 L 6.375 -7.890625 Z M 8.171875 -7.890625 "/></g></g></g><g fill="#ff8b00" fill-opacity="1"><g transform="translate(223.601455, 595.939316)"><g><path d="M 0.9375 -7.890625 L 4.53125 -7.890625 C 5.382812 -7.890625 6.140625 -7.726562 6.796875 -7.40625 C 7.453125 -7.082031 7.960938 -6.625 8.328125 -6.03125 C 8.691406 -5.4375 8.875 -4.742188 8.875 -3.953125 C 8.875 -3.160156 8.691406 -2.46875 8.328125 -1.875 C 7.960938 -1.28125 7.453125 -0.816406 6.796875 -0.484375 C 6.140625 -0.160156 5.382812 0 4.53125 0 L 0.9375 0 Z M 4.4375 -1.5 C 5.226562 -1.5 5.859375 -1.71875 6.328125 -2.15625 C 6.796875 -2.601562 7.03125 -3.203125 7.03125 -3.953125 C 7.03125 -4.703125 6.796875 -5.296875 6.328125 -5.734375 C 5.859375 -6.171875 5.226562 -6.390625 4.4375 -6.390625 L 2.765625 -6.390625 L 2.765625 -1.5 Z M 4.4375 -1.5 "/></g></g></g><g fill="#ff8b00" fill-opacity="1"><g transform="translate(241.947219, 595.939316)"><g/></g></g><g fill="#ff8b00" fill-opacity="1"><g transform="translate(254.166428, 595.939316)"><g><path d="M 3.53125 0.140625 C 2.90625 0.140625 2.300781 0.0546875 1.71875 -0.109375 C 1.132812 -0.285156 0.664062 -0.507812 0.3125 -0.78125 L 0.9375 -2.15625 C 1.269531 -1.90625 1.671875 -1.703125 2.140625 -1.546875 C 2.609375 -1.398438 3.078125 -1.328125 3.546875 -1.328125 C 4.066406 -1.328125 4.445312 -1.40625 4.6875 -1.5625 C 4.9375 -1.71875 5.0625 -1.921875 5.0625 -2.171875 C 5.0625 -2.359375 4.988281 -2.515625 4.84375 -2.640625 C 4.695312 -2.765625 4.507812 -2.863281 4.28125 -2.9375 C 4.050781 -3.019531 3.738281 -3.101562 3.34375 -3.1875 C 2.75 -3.332031 2.257812 -3.472656 1.875 -3.609375 C 1.488281 -3.753906 1.15625 -3.984375 0.875 -4.296875 C 0.601562 -4.617188 0.46875 -5.046875 0.46875 -5.578125 C 0.46875 -6.035156 0.59375 -6.445312 0.84375 -6.8125 C 1.09375 -7.1875 1.46875 -7.484375 1.96875 -7.703125 C 2.46875 -7.921875 3.078125 -8.03125 3.796875 -8.03125 C 4.304688 -8.03125 4.800781 -7.96875 5.28125 -7.84375 C 5.757812 -7.726562 6.179688 -7.554688 6.546875 -7.328125 L 5.984375 -5.9375 C 5.253906 -6.351562 4.523438 -6.5625 3.796875 -6.5625 C 3.273438 -6.5625 2.894531 -6.476562 2.65625 -6.3125 C 2.414062 -6.144531 2.296875 -5.925781 2.296875 -5.65625 C 2.296875 -5.382812 2.4375 -5.179688 2.71875 -5.046875 C 3 -4.921875 3.425781 -4.796875 4 -4.671875 C 4.601562 -4.523438 5.097656 -4.378906 5.484375 -4.234375 C 5.867188 -4.097656 6.195312 -3.875 6.46875 -3.5625 C 6.738281 -3.257812 6.875 -2.84375 6.875 -2.3125 C 6.875 -1.863281 6.75 -1.453125 6.5 -1.078125 C 6.25 -0.703125 5.867188 -0.40625 5.359375 -0.1875 C 4.859375 0.03125 4.25 0.140625 3.53125 0.140625 Z M 3.53125 0.140625 "/></g></g></g><g fill="#ff8b00" fill-opacity="1"><g transform="translate(270.391025, 595.939316)"><g><path d="M 4.765625 0.140625 C 3.941406 0.140625 3.203125 -0.0351562 2.546875 -0.390625 C 1.890625 -0.742188 1.375 -1.226562 1 -1.84375 C 0.625 -2.46875 0.4375 -3.171875 0.4375 -3.953125 C 0.4375 -4.722656 0.625 -5.414062 1 -6.03125 C 1.375 -6.65625 1.890625 -7.144531 2.546875 -7.5 C 3.203125 -7.851562 3.941406 -8.03125 4.765625 -8.03125 C 5.578125 -8.03125 6.3125 -7.851562 6.96875 -7.5 C 7.625 -7.144531 8.140625 -6.65625 8.515625 -6.03125 C 8.890625 -5.414062 9.078125 -4.722656 9.078125 -3.953125 C 9.078125 -3.171875 8.890625 -2.46875 8.515625 -1.84375 C 8.140625 -1.226562 7.625 -0.742188 6.96875 -0.390625 C 6.3125 -0.0351562 5.578125 0.140625 4.765625 0.140625 Z M 4.765625 -1.421875 C 5.222656 -1.421875 5.640625 -1.523438 6.015625 -1.734375 C 6.398438 -1.953125 6.695312 -2.253906 6.90625 -2.640625 C 7.125 -3.023438 7.234375 -3.460938 7.234375 -3.953125 C 7.234375 -4.441406 7.125 -4.875 6.90625 -5.25 C 6.695312 -5.632812 6.398438 -5.929688 6.015625 -6.140625 C 5.640625 -6.359375 5.222656 -6.46875 4.765625 -6.46875 C 4.296875 -6.46875 3.875 -6.359375 3.5 -6.140625 C 3.125 -5.929688 2.828125 -5.632812 2.609375 -5.25 C 2.398438 -4.875 2.296875 -4.441406 2.296875 -3.953125 C 2.296875 -3.460938 2.398438 -3.023438 2.609375 -2.640625 C 2.828125 -2.253906 3.125 -1.953125 3.5 -1.734375 C 3.875 -1.523438 4.296875 -1.421875 4.765625 -1.421875 Z M 4.765625 -1.421875 "/></g></g></g><g fill="#ff8b00" fill-opacity="1"><g transform="translate(288.939877, 595.939316)"><g><path d="M 0.9375 -7.890625 L 2.765625 -7.890625 L 2.765625 -1.484375 L 6.71875 -1.484375 L 6.71875 0 L 0.9375 0 Z M 0.9375 -7.890625 "/></g></g></g><g fill="#ff8b00" fill-opacity="1"><g transform="translate(304.780857, 595.939316)"><g><path d="M 4.4375 0.140625 C 3.3125 0.140625 2.4375 -0.171875 1.8125 -0.796875 C 1.1875 -1.421875 0.875 -2.3125 0.875 -3.46875 L 0.875 -7.890625 L 2.703125 -7.890625 L 2.703125 -3.546875 C 2.703125 -2.128906 3.285156 -1.421875 4.453125 -1.421875 C 5.023438 -1.421875 5.460938 -1.59375 5.765625 -1.9375 C 6.066406 -2.28125 6.21875 -2.816406 6.21875 -3.546875 L 6.21875 -7.890625 L 8.015625 -7.890625 L 8.015625 -3.46875 C 8.015625 -2.3125 7.703125 -1.421875 7.078125 -0.796875 C 6.453125 -0.171875 5.570312 0.140625 4.4375 0.140625 Z M 4.4375 0.140625 "/></g></g></g><g fill="#ff8b00" fill-opacity="1"><g transform="translate(322.697887, 595.939316)"><g><path d="M 2.578125 -6.40625 L 0.046875 -6.40625 L 0.046875 -7.890625 L 6.921875 -7.890625 L 6.921875 -6.40625 L 4.40625 -6.40625 L 4.40625 0 L 2.578125 0 Z M 2.578125 -6.40625 "/></g></g></g><g fill="#ff8b00" fill-opacity="1"><g transform="translate(338.696832, 595.939316)"><g><path d="M 0.9375 -7.890625 L 2.765625 -7.890625 L 2.765625 0 L 0.9375 0 Z M 0.9375 -7.890625 "/></g></g></g><g fill="#ff8b00" fill-opacity="1"><g transform="translate(351.423779, 595.939316)"><g><path d="M 4.765625 0.140625 C 3.941406 0.140625 3.203125 -0.0351562 2.546875 -0.390625 C 1.890625 -0.742188 1.375 -1.226562 1 -1.84375 C 0.625 -2.46875 0.4375 -3.171875 0.4375 -3.953125 C 0.4375 -4.722656 0.625 -5.414062 1 -6.03125 C 1.375 -6.65625 1.890625 -7.144531 2.546875 -7.5 C 3.203125 -7.851562 3.941406 -8.03125 4.765625 -8.03125 C 5.578125 -8.03125 6.3125 -7.851562 6.96875 -7.5 C 7.625 -7.144531 8.140625 -6.65625 8.515625 -6.03125 C 8.890625 -5.414062 9.078125 -4.722656 9.078125 -3.953125 C 9.078125 -3.171875 8.890625 -2.46875 8.515625 -1.84375 C 8.140625 -1.226562 7.625 -0.742188 6.96875 -0.390625 C 6.3125 -0.0351562 5.578125 0.140625 4.765625 0.140625 Z M 4.765625 -1.421875 C 5.222656 -1.421875 5.640625 -1.523438 6.015625 -1.734375 C 6.398438 -1.953125 6.695312 -2.253906 6.90625 -2.640625 C 7.125 -3.023438 7.234375 -3.460938 7.234375 -3.953125 C 7.234375 -4.441406 7.125 -4.875 6.90625 -5.25 C 6.695312 -5.632812 6.398438 -5.929688 6.015625 -6.140625 C 5.640625 -6.359375 5.222656 -6.46875 4.765625 -6.46875 C 4.296875 -6.46875 3.875 -6.359375 3.5 -6.140625 C 3.125 -5.929688 2.828125 -5.632812 2.609375 -5.25 C 2.398438 -4.875 2.296875 -4.441406 2.296875 -3.953125 C 2.296875 -3.460938 2.398438 -3.023438 2.609375 -2.640625 C 2.828125 -2.253906 3.125 -1.953125 3.5 -1.734375 C 3.875 -1.523438 4.296875 -1.421875 4.765625 -1.421875 Z M 4.765625 -1.421875 "/></g></g></g><g fill="#ff8b00" fill-opacity="1"><g transform="translate(369.972638, 595.939316)"><g><path d="M 8.171875 -7.890625 L 8.171875 0 L 6.671875 0 L 2.734375 -4.796875 L 2.734375 0 L 0.9375 0 L 0.9375 -7.890625 L 2.453125 -7.890625 L 6.375 -3.109375 L 6.375 -7.890625 Z M 8.171875 -7.890625 "/></g></g></g><g fill="#ff8b00" fill-opacity="1"><g transform="translate(388.115328, 595.939316)"><g><path d="M 3.53125 0.140625 C 2.90625 0.140625 2.300781 0.0546875 1.71875 -0.109375 C 1.132812 -0.285156 0.664062 -0.507812 0.3125 -0.78125 L 0.9375 -2.15625 C 1.269531 -1.90625 1.671875 -1.703125 2.140625 -1.546875 C 2.609375 -1.398438 3.078125 -1.328125 3.546875 -1.328125 C 4.066406 -1.328125 4.445312 -1.40625 4.6875 -1.5625 C 4.9375 -1.71875 5.0625 -1.921875 5.0625 -2.171875 C 5.0625 -2.359375 4.988281 -2.515625 4.84375 -2.640625 C 4.695312 -2.765625 4.507812 -2.863281 4.28125 -2.9375 C 4.050781 -3.019531 3.738281 -3.101562 3.34375 -3.1875 C 2.75 -3.332031 2.257812 -3.472656 1.875 -3.609375 C 1.488281 -3.753906 1.15625 -3.984375 0.875 -4.296875 C 0.601562 -4.617188 0.46875 -5.046875 0.46875 -5.578125 C 0.46875 -6.035156 0.59375 -6.445312 0.84375 -6.8125 C 1.09375 -7.1875 1.46875 -7.484375 1.96875 -7.703125 C 2.46875 -7.921875 3.078125 -8.03125 3.796875 -8.03125 C 4.304688 -8.03125 4.800781 -7.96875 5.28125 -7.84375 C 5.757812 -7.726562 6.179688 -7.554688 6.546875 -7.328125 L 5.984375 -5.9375 C 5.253906 -6.351562 4.523438 -6.5625 3.796875 -6.5625 C 3.273438 -6.5625 2.894531 -6.476562 2.65625 -6.3125 C 2.414062 -6.144531 2.296875 -5.925781 2.296875 -5.65625 C 2.296875 -5.382812 2.4375 -5.179688 2.71875 -5.046875 C 3 -4.921875 3.425781 -4.796875 4 -4.671875 C 4.601562 -4.523438 5.097656 -4.378906 5.484375 -4.234375 C 5.867188 -4.097656 6.195312 -3.875 6.46875 -3.5625 C 6.738281 -3.257812 6.875 -2.84375 6.875 -2.3125 C 6.875 -1.863281 6.75 -1.453125 6.5 -1.078125 C 6.25 -0.703125 5.867188 -0.40625 5.359375 -0.1875 C 4.859375 0.03125 4.25 0.140625 3.53125 0.140625 Z M 3.53125 0.140625 "/></g></g></g></svg>